Coordinates
version=1
nRows=34
nColumns=38
inDegrees=no

Units are S.I. units (second, meters, Newtons, ...)
If the header above contains a line with 'inDegrees', this indicates whether rotational values are in degrees (yes) or radians (no).

endheader
time	pelvis_tilt	pelvis_list	pelvis_rotation	pelvis_tx	pelvis_ty	pelvis_tz	hip_flexion_r	hip_adduction_r	hip_rotation_r	knee_angle_r	ankle_angle_r	subtalar_angle_r	mtp_angle_r	hip_flexion_l	hip_adduction_l	hip_rotation_l	knee_angle_l	ankle_angle_l	subtalar_angle_l	mtp_angle_l	lumbar_extension	lumbar_bending	lumbar_rotation	arm_flex_r	arm_add_r	arm_rot_r	elbow_flex_r	pro_sup_r	wrist_flex_r	wrist_dev_r	arm_flex_l	arm_add_l	arm_rot_l	elbow_flex_l	pro_sup_l	wrist_flex_l	wrist_dev_l
1.65	-0.796593	1.51644	-0.649636	0.743488	-0.360047	1.05815	-0.183862	0.0950066	-0.0893851	0.0594406	-0.102787	0	0	0.293667	-0.104523	-0.163465	0.755221	-0.0104849	0	0	-0.305442	0.0436857	0.133783	-0.193707	-0.395016	0.337516	0.70133	0.78142	0	0	0.0540108	-0.563494	0.612629	0.645454	1.13374	0	0
1.66	-0.726285	1.51746	-0.730403	0.743011	-0.37337	1.05814	-0.20291	0.0891707	-0.0844716	0.0538428	-0.106123	0	0	0.28772	-0.100483	-0.185993	0.673895	-0.025253	0	0	-0.308275	0.0379829	0.140033	-0.19362	-0.397701	0.335978	0.705125	0.785471	0	0	0.0470831	-0.559714	0.607022	0.641173	1.12995	0	0
1.67	-0.633673	1.51727	-0.834268	0.742373	-0.386957	1.05785	-0.222561	0.0851779	-0.0910965	0.0501934	-0.109243	0	0	0.277578	-0.0966722	-0.214423	0.587678	-0.044434	0	0	-0.312236	0.0319587	0.146727	-0.195145	-0.399682	0.331854	0.710522	0.788375	0	0	0.039645	-0.558182	0.604099	0.638855	1.12502	0	0
1.68	-0.564403	1.51676	-0.915176	0.741869	-0.400625	1.05724	-0.241501	0.0802186	-0.0917189	0.0467022	-0.111617	0	0	0.266753	-0.0929129	-0.245904	0.498916	-0.0647593	0	0	-0.315156	0.0272648	0.154195	-0.197513	-0.402631	0.327784	0.716458	0.791491	0	0	0.0329403	-0.557153	0.6044	0.63689	1.1201	0	0
1.69	-0.516199	1.51659	-0.974748	0.741473	-0.414398	1.05621	-0.259075	0.0754054	-0.0922079	0.0437452	-0.113198	0	0	0.256533	-0.0884921	-0.278267	0.411049	-0.0857122	0	0	-0.316778	0.0233774	0.161809	-0.200698	-0.406038	0.323747	0.722751	0.79503	0	0	0.0262951	-0.55702	0.606476	0.635263	1.11481	0	0
1.7	-0.50084	1.51755	-1.00016	0.741288	-0.428194	1.05467	-0.274	0.0712438	-0.093397	0.0417818	-0.114021	0	0	0.249124	-0.083003	-0.306361	0.326697	-0.10261	0	0	-0.315997	0.0208466	0.168517	-0.204633	-0.409673	0.319811	0.729001	0.798275	0	0	0.019329	-0.557473	0.608775	0.63383	1.11035	0	0
1.71	-0.521456	1.52007	-0.987974	0.741304	-0.441969	1.05258	-0.285885	0.0678643	-0.0955368	0.0408662	-0.113889	0	0	0.245475	-0.0763256	-0.325059	0.248105	-0.11485	0	0	-0.312441	0.0196044	0.173961	-0.20907	-0.413007	0.315394	0.734674	0.800645	0	0	0.0118174	-0.558403	0.610259	0.63238	1.10673	0	0
1.72	-0.585502	1.5238	-0.930951	0.741501	-0.455723	1.04997	-0.294795	0.0653622	-0.0977824	0.0413752	-0.112531	0	0	0.245544	-0.069218	-0.332314	0.176869	-0.124119	0	0	-0.306613	0.0196983	0.177956	-0.213662	-0.41627	0.310702	0.740008	0.803194	0	0	0.00351786	-0.56013	0.610976	0.631284	1.10274	0	0
1.73	-0.701708	1.52863	-0.820181	0.741807	-0.469493	1.04695	-0.300814	0.0634417	-0.0996347	0.0432285	-0.110075	0	0	0.249719	-0.0617818	-0.327653	0.11446	-0.129328	0	0	-0.298493	0.0202506	0.180409	-0.21755	-0.419072	0.307934	0.743782	0.80729	0	0	-0.00532046	-0.562817	0.610477	0.630231	1.09916	0	0
1.74	-0.86671	1.53293	-0.659824	0.742162	-0.483408	1.04369	-0.305424	0.0618713	-0.101235	0.0466203	-0.107015	0	0	0.255352	-0.0549896	-0.31675	0.0604818	-0.13187	0	0	-0.2892	0.0210898	0.181571	-0.220746	-0.421004	0.30566	0.745982	0.811307	0	0	-0.0153656	-0.565833	0.607239	0.62863	1.09584	0	0
1.75	-1.05014	1.53644	-0.480378	0.742524	-0.497392	1.04053	-0.30927	0.0595125	-0.103375	0.0523552	-0.104078	0	0	0.262218	-0.046943	-0.303685	0.0134436	-0.1344	0	0	-0.280472	0.0208665	0.181226	-0.221916	-0.421214	0.304236	0.74517	0.813532	0	0	-0.0258143	-0.568214	0.599975	0.624725	1.09212	0	0
1.76	-1.20973	1.53775	-0.324687	0.742885	-0.511471	1.03753	-0.314595	0.0572747	-0.10484	0.0597031	-0.102549	0	0	0.26923	-0.0411128	-0.298036	0	-0.134085	0	0	-0.274973	0.0206509	0.181556	-0.222766	-0.421908	0.303859	0.744927	0.814476	0	0	-0.0349064	-0.570459	0.591699	0.620057	1.08987	0	0
1.77	-1.3644	1.53835	-0.173468	0.74328	-0.525693	1.03469	-0.318978	0.0544951	-0.107089	0.0705738	-0.101487	0	0	0.277339	-0.0357173	-0.293436	0	-0.131044	0	0	-0.269417	0.0201152	0.180541	-0.222418	-0.422007	0.304474	0.743062	0.815607	0	0	-0.0449784	-0.571685	0.579254	0.613309	1.08748	0	0
1.78	-1.44064	1.53803	-0.100238	0.743744	-0.540138	1.03219	-0.325897	0.0514117	-0.108513	0.0817306	-0.101588	0	0	0.283322	-0.0306457	-0.290104	0	-0.125187	0	0	-0.267108	0.0193528	0.180033	-0.22158	-0.421841	0.306046	0.740198	0.816682	0	0	-0.0536784	-0.573037	0.566928	0.606248	1.08637	0	0
1.79	-1.44415	1.53745	-0.0989882	0.744247	-0.554846	1.03007	-0.334028	0.0481873	-0.109734	0.095198	-0.103382	0	0	0.287605	-0.0260899	-0.289079	0	-0.117792	0	0	-0.266983	0.0185432	0.179314	-0.22044	-0.420844	0.30842	0.73598	0.817536	0	0	-0.06196	-0.574015	0.553011	0.598578	1.08543	0	0
1.8	-1.38914	1.53654	-0.155442	0.744712	-0.569858	1.02828	-0.343588	0.0450449	-0.109776	0.110558	-0.107613	0	0	0.290301	-0.022802	-0.289765	0	-0.112471	0	0	-0.268528	0.0179329	0.178398	-0.219739	-0.41853	0.309804	0.730957	0.816573	0	0	-0.0698575	-0.574642	0.537764	0.59026	1.08407	0	0
1.81	-1.30302	1.53596	-0.243964	0.745056	-0.585281	1.02675	-0.352841	0.0403984	-0.107462	0.129633	-0.115564	0	0	0.291223	-0.0203155	-0.291813	0.00180829	-0.111173	0	0	-0.270559	0.0161611	0.178798	-0.218743	-0.414829	0.31204	0.723268	0.814533	0	0	-0.0780505	-0.574745	0.519692	0.581603	1.08292	0	0
1.82	-1.22371	1.53554	-0.32566	0.745328	-0.601055	1.02527	-0.360276	0.0349149	-0.102883	0.151836	-0.129022	0	0	0.293145	-0.0189556	-0.295543	0.0355321	-0.113197	0	0	-0.271749	0.0135536	0.179919	-0.217014	-0.41013	0.317368	0.712357	0.81188	0	0	-0.0871007	-0.575109	0.497722	0.5748	1.08423	0	0
1.83	-1.13383	1.53527	-0.418232	0.745539	-0.617208	1.02385	-0.366253	0.0282689	-0.0957218	0.177527	-0.145297	0	0	0.292765	-0.0167777	-0.292408	0.0696867	-0.120332	0	0	-0.27194	0.0101051	0.180807	-0.214507	-0.404253	0.324668	0.698473	0.808731	0	0	-0.0977662	-0.576249	0.474191	0.569723	1.08547	0	0
1.84	-1.06107	1.53616	-0.493735	0.745758	-0.633647	1.02238	-0.368689	0.0199401	-0.0877459	0.207668	-0.163196	0	0	0.292115	-0.0121804	-0.28398	0.100101	-0.137264	0	0	-0.269717	0.00510166	0.180925	-0.210709	-0.396609	0.334617	0.680487	0.807361	0	0	-0.109848	-0.57837	0.450974	0.565796	1.08362	0	0
1.85	-0.98885	1.53875	-0.568679	0.746062	-0.650134	1.02106	-0.367151	0.0092905	-0.0785614	0.242087	-0.187008	0	0	0.292368	-0.0045428	-0.272433	0.124194	-0.166452	0	0	-0.265389	-0.00198874	0.179066	-0.204622	-0.387186	0.347294	0.658778	0.804074	0	0	-0.123664	-0.580427	0.425444	0.562607	1.07907	0	0
1.86	-0.894813	1.5427	-0.664718	0.746474	-0.666434	1.02012	-0.361501	-0.00335644	-0.0694244	0.280987	-0.215969	0	0	0.294509	0.00419706	-0.259262	0.146716	-0.189902	0	0	-0.260601	-0.0109617	0.175324	-0.196895	-0.376107	0.360182	0.635586	0.796714	0	0	-0.136574	-0.582319	0.4008	0.55898	1.07135	0	0
1.87	-0.793024	1.54802	-0.767511	0.746973	-0.682414	1.01953	-0.350616	-0.0174054	-0.0602872	0.323775	-0.253239	0	0	0.299417	0.011335	-0.244596	0.1746	-0.196792	0	0	-0.254884	-0.0211839	0.170209	-0.186917	-0.363745	0.37655	0.610042	0.786279	0	0	-0.147882	-0.58385	0.377255	0.554976	1.06176	0	0
1.88	-0.676851	1.55417	-0.883404	0.747653	-0.698066	1.0192	-0.335049	-0.0318119	-0.0518373	0.36949	-0.299326	0	0	0.30613	0.016643	-0.227197	0.210858	-0.186649	0	0	-0.248225	-0.0308093	0.164425	-0.177317	-0.35208	0.393855	0.586135	0.773811	0	0	-0.156324	-0.584229	0.356392	0.549614	1.05162	0	0
1.89	-0.503312	1.56025	-1.05594	0.74851	-0.713274	1.01918	-0.31528	-0.0457284	-0.0422199	0.417081	-0.356235	0	0	0.313743	0.0212234	-0.206991	0.253266	-0.166981	0	0	-0.242076	-0.0387871	0.158672	-0.168153	-0.34236	0.412263	0.565217	0.757369	0	0	-0.161434	-0.582947	0.337788	0.543215	1.04123	0	0
1.9	-0.0422665	1.56378	-1.51697	0.749347	-0.727999	1.01962	-0.294543	-0.0579573	-0.0270857	0.463193	-0.411864	0	0	0.318945	0.0260258	-0.188793	0.295162	-0.14956	0	0	-0.240316	-0.0451957	0.15625	-0.160458	-0.334583	0.425912	0.548752	0.743395	0	0	-0.160253	-0.580846	0.3259	0.536101	1.03288	0	0
1.91	0.449472	1.56379	-2.01072	0.750059	-0.742429	1.02033	-0.273132	-0.0671016	-0.0067349	0.50644	-0.479618	0	0	0.320538	0.0287921	-0.178024	0.331923	-0.133338	0	0	-0.241448	-0.0492819	0.1567	-0.153189	-0.329171	0.439668	0.535177	0.726018	0	0	-0.156868	-0.577766	0.316085	0.530525	1.02809	0	0
1.92	0.876089	1.56233	-2.44119	0.750607	-0.756465	1.02085	-0.246042	-0.074618	0.0166458	0.555746	-0.542077	0	0	0.32016	0.0325155	-0.170765	0.361487	-0.119372	0	0	-0.243445	-0.0524081	0.159963	-0.149623	-0.325693	0.44584	0.528133	0.710893	0	0	-0.151753	-0.575262	0.310368	0.528441	1.0262	0	0
1.93	2.41691	1.53551	2.29413	0.750244	-0.770209	1.01639	-0.191895	-0.11257	0.056559	0.584968	-0.609768	0	0	0.35515	0.0514381	-0.1583	0.393941	-0.0964406	0	0	-0.204322	-0.0708892	0.163262	-0.156686	-0.317479	0.447393	0.524524	0.701428	0	0	-0.161734	-0.582295	0.30402	0.538032	1.02313	0	0
1.94	2.37526	1.53097	2.3292	0.750419	-0.783853	1.01661	-0.161064	-0.121213	0.0767041	0.624809	-0.695518	0	0	0.350896	0.0570435	-0.156257	0.4111	-0.0781686	0	0	-0.203711	-0.0738334	0.169351	-0.156	-0.316922	0.45141	0.523157	0.692035	0	0	-0.1569	-0.581988	0.305487	0.54167	1.02009	0	0
1.95	2.31658	1.52624	2.37928	0.750188	-0.797374	1.01688	-0.131209	-0.130141	0.0960424	0.664057	-0.698132	0	0	0.342963	0.0628795	-0.160543	0.423834	-0.0640025	0	0	-0.204062	-0.0783367	0.176572	-0.15752	-0.317442	0.449678	0.527727	0.687703	0	0	-0.153668	-0.583652	0.305636	0.550942	1.01955	0	0
1.96	2.25487	1.52265	2.43142	0.749752	-0.81085	1.01743	-0.101666	-0.138708	0.112503	0.705439	-0.698132	0	0	0.330588	0.067436	-0.169975	0.431509	-0.0490857	0	0	-0.205785	-0.0831116	0.182812	-0.158339	-0.318812	0.447705	0.53419	0.686458	0	0	-0.153048	-0.585892	0.30271	0.563923	1.02182	0	0
1.97	2.1927	1.52068	2.48505	0.74937	-0.824265	1.01832	-0.0781193	-0.145826	0.124085	0.739174	-0.698132	0	0	0.314369	0.0705586	-0.181635	0.433814	-0.0365625	0	0	-0.208612	-0.0869735	0.186193	-0.158589	-0.320486	0.445261	0.541209	0.686655	0	0	-0.154153	-0.587607	0.297544	0.57769	1.02633	0	0
1.98	2.16418	1.51845	2.50802	0.749243	-0.837536	1.01918	-0.0500432	-0.152903	0.127042	0.780149	-0.698132	0	0	0.298459	0.0730131	-0.193211	0.431884	-0.0272264	0	0	-0.209077	-0.0895797	0.185204	-0.159639	-0.322348	0.440237	0.54941	0.687124	0	0	-0.157797	-0.589257	0.288894	0.593604	1.03172	0	0
